<svg width="206" height="48" viewBox="0 0 206 48" fill="none" xmlns="http://www.w3.org/2000/svg">
<path d="M23.47 23.48L12 28L23.47 32.53L26.42 40H24L8 32V24L24 16H26.42L23.47 23.48Z" fill="#605DFD"/>
<path d="M48.0001 24V32L32.0001 40H29.5801L32.5301 32.53L44.0001 28L32.5301 23.48L29.5801 16H32.0001L48.0001 24Z" fill="#605DFD"/>
<g clip-path="url(#clip0_377_174)">
<path d="M56 39.7294V16.5317H60.2219L60.7559 20.0117C61.3261 19.0759 62.1199 18.2571 63.1303 17.5699C64.1407 16.8827 65.6057 16.5317 67.5326 16.5317H68.6801V21.1157H66.5367C65.1077 21.1157 63.9819 21.4447 63.1375 22.11C62.3004 22.768 61.7086 23.6307 61.3622 24.6908C61.0158 25.7508 60.8498 26.8913 60.8498 28.105V39.7294H56Z" fill="#1F1F1F"/>
<path d="M75.1969 25.5754H87.4512C87.2636 23.8573 86.6213 22.5267 85.5315 21.5982C84.4417 20.6697 83.0489 20.2018 81.3529 20.2018C80.3425 20.2018 79.3971 20.4212 78.5167 20.8525C77.6362 21.2838 76.9001 21.898 76.3083 22.6949C75.7165 23.4844 75.3484 24.4495 75.2041 25.5827L75.1969 25.5754ZM81.7498 39.9999C79.361 39.9999 77.2898 39.5027 75.5289 38.5157C73.7679 37.5288 72.4112 36.147 71.4513 34.3778C70.4915 32.6085 70.0151 30.5322 70.0151 28.1561C70.0151 25.7801 70.4842 23.6818 71.4224 21.9053C72.3606 20.1287 73.6813 18.747 75.3773 17.7527C77.0733 16.7584 79.0435 16.2612 81.2807 16.2612C83.518 16.2612 85.4377 16.7145 87.1048 17.6211C88.7719 18.5276 90.0709 19.8217 91.0019 21.5032C91.9329 23.1847 92.3948 25.1879 92.3948 27.5201V28.3316C92.3948 28.6094 92.3876 28.9019 92.3659 29.2016H75.0742V29.4794C75.0742 30.7735 75.3412 31.914 75.8753 32.9009C76.4093 33.8879 77.1671 34.6556 78.1414 35.1966C79.1157 35.7449 80.2271 36.0154 81.49 36.0154C82.9911 36.0154 84.2541 35.6572 85.2789 34.948C86.3109 34.2315 86.9893 33.2446 87.3285 31.9724H92.1638C91.8896 33.4785 91.2906 34.8383 90.3668 36.0593C89.4431 37.2802 88.2451 38.2379 86.7728 38.9471C85.3078 39.6563 83.6262 40.0072 81.7426 40.0072L81.7498 39.9999Z" fill="#1F1F1F"/>
<path d="M97.8364 39.7295V20.8234H93.8599V16.5319H97.8364V14.3313C97.8364 12.233 98.3488 10.6539 99.3808 9.59379C100.406 8.5337 102.022 8 104.231 8H108.828V12.2915H104.866C104.072 12.2915 103.502 12.4743 103.155 12.8472C102.809 13.2127 102.636 13.783 102.636 14.5579V16.5392H108.835V20.8307H102.686V39.7368H97.8436L97.8364 39.7295Z" fill="#1F1F1F"/>
<path d="M119.191 36.1909C120.534 36.1909 121.681 35.935 122.634 35.4305C123.587 34.9261 124.315 34.2242 124.821 33.325C125.326 32.4257 125.578 31.3949 125.578 30.2251V29.3917H119.581C118.08 29.3917 116.925 29.6768 116.124 30.2398C115.323 30.81 114.919 31.68 114.919 32.8498C114.919 33.8952 115.302 34.7067 116.074 35.2989C116.846 35.8911 117.885 36.1836 119.184 36.1836L119.191 36.1909ZM118.52 39.9999C116.86 39.9999 115.388 39.7294 114.104 39.1957C112.826 38.662 111.823 37.887 111.109 36.8708C110.387 35.8546 110.033 34.6336 110.033 33.208C110.033 30.81 110.87 28.975 112.537 27.6882C114.205 26.4088 116.637 25.7655 119.827 25.7655H125.586V24.3764C125.586 23.0239 125.153 21.9857 124.279 21.2619C123.406 20.5381 122.172 20.1726 120.57 20.1726C119.098 20.1726 117.921 20.4796 117.041 21.1011C116.16 21.7225 115.619 22.5486 115.424 23.5868H110.668C110.841 22.0734 111.361 20.7721 112.227 19.6828C113.093 18.5934 114.262 17.7527 115.72 17.1532C117.178 16.5537 118.867 16.2612 120.779 16.2612C123.832 16.2612 126.199 16.9777 127.873 18.418C129.548 19.8509 130.392 21.9345 130.392 24.6688V33.9537C130.392 34.5459 130.508 34.948 130.746 35.1527C130.977 35.3574 131.345 35.4598 131.843 35.4598H132.824V39.7367H130.269C128.768 39.7367 127.693 39.4077 127.051 38.757C126.408 38.1063 126.091 37.251 126.091 36.2055V36.0885C125.607 36.8415 125.023 37.5215 124.323 38.1136C123.63 38.7058 122.8 39.1737 121.84 39.5027C120.88 39.8317 119.769 40.0072 118.513 40.0072L118.52 39.9999Z" fill="#1F1F1F"/>
<path d="M145.749 39.9999C143.426 39.9999 141.412 39.5173 139.709 38.5523C138.006 37.5872 136.692 36.2128 135.768 34.4362C134.845 32.6597 134.383 30.5687 134.383 28.1634C134.383 25.7581 134.859 23.6964 135.819 21.9053C136.779 20.1214 138.114 18.7323 139.839 17.738C141.564 16.7437 143.577 16.2539 145.887 16.2539C148.838 16.2539 151.213 17.0216 153.01 18.5569C154.807 20.0922 155.933 22.1758 156.394 24.7931H151.335C151.039 23.4406 150.419 22.3732 149.459 21.5836C148.506 20.8013 147.287 20.4065 145.814 20.4065C144.515 20.4065 143.382 20.7355 142.408 21.3862C141.434 22.0442 140.676 22.9507 140.142 24.1059C139.601 25.261 139.334 26.6135 139.334 28.1488C139.334 29.6841 139.601 30.9855 140.127 32.1479C140.654 33.3103 141.405 34.2169 142.379 34.8603C143.353 35.5036 144.501 35.8253 145.822 35.8253C147.308 35.8253 148.528 35.4232 149.473 34.619C150.419 33.8148 151.047 32.7401 151.35 31.3876H156.409C156.12 33.1349 155.507 34.6629 154.569 35.9569C153.63 37.2509 152.411 38.2452 150.917 38.9398C149.423 39.6343 147.698 39.9852 145.749 39.9852V39.9999Z" fill="#1F1F1F"/>
<path d="M168.093 39.7293C165.914 39.7293 164.333 39.2029 163.345 38.1574C162.356 37.1046 161.858 35.5255 161.858 33.4126V20.8232H157.881V16.5316H161.858V10.0249H166.7V16.5316H172.589V20.8232H166.7V32.9228C166.7 33.8293 166.888 34.48 167.256 34.8602C167.624 35.2477 168.266 35.4377 169.183 35.4377H172.589V39.7293H168.093Z" fill="#1F1F1F"/>
<path d="M186.316 35.8399C187.694 35.8399 188.878 35.5036 189.881 34.8383C190.884 34.173 191.664 33.2592 192.219 32.0967C192.775 30.9343 193.049 29.611 193.049 28.1269C193.049 26.6428 192.775 25.2829 192.219 24.1351C191.664 22.9873 190.884 22.0807 189.881 21.4154C188.878 20.7501 187.687 20.4138 186.316 20.4138C184.945 20.4138 183.761 20.7501 182.751 21.4154C181.74 22.0807 180.961 22.9873 180.405 24.1351C179.85 25.2829 179.575 26.6135 179.575 28.1269C179.575 29.6403 179.85 30.9343 180.405 32.0967C180.961 33.2592 181.74 34.173 182.751 34.8383C183.761 35.5036 184.945 35.8399 186.316 35.8399ZM186.316 39.9999C184.007 39.9999 181.971 39.5027 180.203 38.5084C178.442 37.5141 177.071 36.1251 176.097 34.3412C175.123 32.5573 174.632 30.481 174.632 28.1342C174.632 25.7874 175.123 23.6818 176.097 21.9053C177.071 20.1287 178.442 18.747 180.203 17.7527C181.964 16.7584 183.999 16.2612 186.316 16.2612C188.633 16.2612 190.689 16.7584 192.443 17.7527C194.197 18.747 195.561 20.1287 196.535 21.9053C197.509 23.6818 198 25.7581 198 28.1342C198 30.5103 197.509 32.5573 196.535 34.3412C195.561 36.1251 194.197 37.5215 192.443 38.5084C190.689 39.4954 188.647 39.9999 186.316 39.9999Z" fill="#1F1F1F"/>
</g>
<defs>
<clipPath id="clip0_377_174">
<rect width="142" height="32" fill="white" transform="translate(56 8)"/>
</clipPath>
</defs>
</svg>
